<?xml version="1.0" encoding="UTF-8"?>
<svg
    xmlns="http://www.w3.org/2000/svg"
    id="Capa_1"
    enable-background="new 0 0 512 512"
    height="512"
    viewBox="0 0 512 512"
    width="512"
>
    <linearGradient
        id="SVGID_1_"
        gradientUnits="userSpaceOnUse"
        x1="256"
        x2="256"
        y1="481"
        y2="31"
    >
        <stop offset="0" stop-color="#996600" />
        <stop offset="1" stop-color="#f48122" />
    </linearGradient>
    <g>
        <g>
            <path
                d="m507.014 274.99c-10.279-9.422-41.803-29.182-56.014-37.354v-191.636c0-8.291-6.709-15-15-15s-15 6.709-15 15v39.364c-30.533-9.095-92.509-24.364-165-24.364s-134.467 15.269-165 24.364v-39.364c0-8.291-6.709-15-15-15s-15 6.709-15 15v191.636c-14.488 8.331-46.14 28.302-56.014 37.354-.126.114-4.986 4.609-4.986 11.01v180c0 8.291 6.709 15 15 15s15-6.709 15-15v-45h452v45c0 8.291 6.709 15 15 15s15-6.709 15-15v-180c0-5.715-3.895-10.019-4.986-11.01zm-416.014-158.209c23.921-7.617 89.019-25.781 165-25.781 75.776 0 141.035 18.179 165 25.781v105.035c-43.823-21.237-101.287-40.816-165-40.816s-121.177 19.579-165 40.816zm165 94.219c79.695 0 150.458 34.557 191.92 60h-383.93c41.384-25.439 112.09-60 192.01-60zm226 180h-452v-90h452z"
                fill="url(#SVGID_1_)"
            />
        </g>
    </g>
</svg>