<?xml version="1.0" encoding="UTF-8"?>
<svg
    xmlns="http://www.w3.org/2000/svg"
    width="512"
    height="512"
    viewBox="0 0 128 128"
>
    <defs>
        <linearGradient
            id="a"
            x1="100.983"
            y1="115.282"
            x2="18.773"
            y2="33.071"
            gradientUnits="userSpaceOnUse"
        >
            <stop offset="0" stop-color="#996600" />
            <stop offset="1" stop-color="#f48122" />
        </linearGradient>
    </defs>
    <path
        d="M19.886,102.936a1.75,1.75,0,1,1-2.613,2.329,25.991,25.991,0,0,1-2.821-3.82,1.75,1.75,0,1,1,2.994-1.812A22.423,22.423,0,0,0,19.886,102.936Zm88.023-5.651a1.751,1.751,0,0,0,1.6-1.029,19.552,19.552,0,0,0,1.745-8.116,1.75,1.75,0,1,0-3.5,0,16.056,16.056,0,0,1-1.435,6.673,1.751,1.751,0,0,0,1.594,2.472ZM123.25,65.553a4.727,4.727,0,0,1-3.6,4.609c-.772.19-1.576.375-2.4.555V88.14A25.779,25.779,0,0,1,91.5,113.89H88.04v5.86h2.954l.582-1.905a1.75,1.75,0,1,1,3.348,1.022l-.96,3.144a1.75,1.75,0,0,1-1.674,1.239h-6a1.75,1.75,0,0,1-1.75-1.75v-7.61H43.46v7.61a1.751,1.751,0,0,1-1.75,1.75h-6a1.75,1.75,0,0,1-1.674-1.239L31.4,113.377a25.633,25.633,0,0,1-8.275-3.232,1.75,1.75,0,1,1,1.821-2.989A22.2,22.2,0,0,0,36.5,110.39h55a22.275,22.275,0,0,0,22.25-22.25V71.421C100.837,73.841,82.831,75.25,64,75.25s-36.827-1.41-49.75-3.831V88.14a22.278,22.278,0,0,0,.842,6.084,1.75,1.75,0,0,1-1.206,2.161,1.718,1.718,0,0,1-.478.067,1.751,1.751,0,0,1-1.683-1.273,25.778,25.778,0,0,1-.975-7.039V70.716c-.826-.18-1.63-.365-2.4-.554a4.748,4.748,0,0,1,2.27-9.221,172.746,172.746,0,0,0,26.8,3.829A14.2,14.2,0,0,1,48.6,58.628a7.727,7.727,0,0,1,9.454-3.719,14.094,14.094,0,0,1,9.79-3.959,13.947,13.947,0,0,1,7.541,2.192,13.918,13.918,0,0,1,8.459-.378,14.114,14.114,0,0,1,22.079,4.366,1.751,1.751,0,0,1-3.147,1.535,10.612,10.612,0,0,0-17.2-2.712,1.744,1.744,0,0,1-1.842.438,10.446,10.446,0,0,0-7.834.322,1.753,1.753,0,0,1-1.767-.187A10.483,10.483,0,0,0,67.84,54.45a10.618,10.618,0,0,0-8.053,3.711,1.753,1.753,0,0,1-2.2.373,4.229,4.229,0,0,0-6.164,2.4,1.774,1.774,0,0,1-1.742,1.219l-.263-.014c-.114-.006-.227-.014-.343-.014a10.657,10.657,0,0,0-7.32,2.949c7.042.443,14.556.681,22.25.681,21.277,0,41.232-1.8,53.381-4.809a4.74,4.74,0,0,1,5.869,4.612ZM39.96,113.89H36.5c-.434,0-.866-.023-1.3-.044l1.8,5.9H39.96Zm79.79-48.337a1.25,1.25,0,0,0-.481-.989,1.2,1.2,0,0,0-1.046-.225C105.814,67.414,85.545,69.25,64,69.25S22.185,67.414,9.777,64.339a1.27,1.27,0,0,0-.3-.038,1.22,1.22,0,0,0-.746.263,1.253,1.253,0,0,0,.453,2.2C21.891,69.886,42.383,71.75,64,71.75c21.633,0,42.125-1.864,54.816-4.986a1.237,1.237,0,0,0,.934-1.21ZM42.548,12.5a7.75,7.75,0,1,1,7.75,7.75A7.759,7.759,0,0,1,42.548,12.5Zm3.5,0A4.25,4.25,0,1,0,50.3,8.25,4.255,4.255,0,0,0,46.048,12.5Zm21.25,14a6.25,6.25,0,1,1,6.25,6.25A6.257,6.257,0,0,1,67.3,26.5Zm3.5,0a2.75,2.75,0,1,0,2.75-2.75A2.752,2.752,0,0,0,70.8,26.5ZM53.3,34.558a4.75,4.75,0,1,1-4.75,4.75A4.755,4.755,0,0,1,53.3,34.558Zm0,3.5a1.25,1.25,0,1,0,1.25,1.25A1.251,1.251,0,0,0,53.3,38.058Z"
        fill="url(#a)"
    />
</svg>